<svg width="28" height="28" viewBox="0 0 28 28" fill="none" xmlns="http://www.w3.org/2000/svg">
<path d="M14.0003 27.3334C6.63633 27.3334 0.666992 21.3641 0.666992 14.0001C0.666992 6.63608 6.63633 0.666748 14.0003 0.666748C21.3643 0.666748 27.3337 6.63608 27.3337 14.0001C27.3337 21.3641 21.3643 27.3334 14.0003 27.3334ZM9.33366 16.6667V19.3334H12.667V22.0001H15.3337V19.3334H16.667C17.551 19.3334 18.3989 18.9822 19.024 18.3571C19.6491 17.732 20.0003 16.8841 20.0003 16.0001C20.0003 15.116 19.6491 14.2682 19.024 13.6431C18.3989 13.0179 17.551 12.6667 16.667 12.6667H11.3337C11.1568 12.6667 10.9873 12.5965 10.8623 12.4715C10.7372 12.3465 10.667 12.1769 10.667 12.0001C10.667 11.8233 10.7372 11.6537 10.8623 11.5287C10.9873 11.4037 11.1568 11.3334 11.3337 11.3334H18.667V8.66675H15.3337V6.00008H12.667V8.66675H11.3337C10.4496 8.66675 9.60176 9.01794 8.97664 9.64306C8.35152 10.2682 8.00033 11.116 8.00033 12.0001C8.00033 12.8841 8.35152 13.732 8.97664 14.3571C9.60176 14.9822 10.4496 15.3334 11.3337 15.3334H16.667C16.8438 15.3334 17.0134 15.4037 17.1384 15.5287C17.2634 15.6537 17.3337 15.8233 17.3337 16.0001C17.3337 16.1769 17.2634 16.3465 17.1384 16.4715C17.0134 16.5965 16.8438 16.6667 16.667 16.6667H9.33366Z" fill="white"/>
</svg>
