<svg width="28" height="30" viewBox="0 0 28 30" fill="none" xmlns="http://www.w3.org/2000/svg">
<path fill-rule="evenodd" clip-rule="evenodd" d="M12.0032 0.867502C12.6106 0.517498 13.2993 0.333252 14.0003 0.333252C14.7014 0.333252 15.3901 0.517514 15.9975 0.867546C15.9985 0.86808 15.9994 0.868615 16.0003 0.86915L25.3337 6.20247C25.9411 6.55321 26.4457 7.05751 26.7967 7.66481C27.1478 8.2721 27.3329 8.96103 27.3337 9.66248V20.3319C27.3329 21.0333 27.1478 21.7223 26.7967 22.3296C26.4457 22.9369 25.9411 23.4412 25.3337 23.7919L25.3285 23.7948L16.0003 29.1252C15.9995 29.1257 15.9987 29.1261 15.9979 29.1266C15.3904 29.4768 14.7016 29.6611 14.0003 29.6611C13.2991 29.6611 12.6103 29.4768 12.0028 29.1266C12.002 29.1262 12.0011 29.1257 12.0003 29.1252L2.67214 23.7948L2.66699 23.7919C2.05952 23.4412 1.55495 22.9369 1.20392 22.3296C0.852878 21.7223 0.667712 21.0333 0.666992 20.3319V9.66248C0.667712 8.96103 0.852878 8.2721 1.20392 7.66481C1.55495 7.05751 2.05952 6.55321 2.66699 6.20248L2.67213 6.19952L12.0032 0.867502ZM14.0003 2.99992C13.7663 2.99992 13.5364 3.06153 13.3337 3.17855L13.3285 3.18152L4.00032 8.51189C3.99962 8.51229 3.99892 8.5127 3.99822 8.5131C3.79667 8.62996 3.62924 8.7976 3.51263 8.99933C3.39572 9.20159 3.334 9.43102 3.33366 9.66464V20.3297C3.334 20.5633 3.39572 20.7928 3.51263 20.995C3.62924 21.1968 3.79667 21.3644 3.99822 21.4813C3.99892 21.4817 3.99962 21.4821 4.00032 21.4825L13.3337 26.8158C13.5364 26.9328 13.7663 26.9945 14.0003 26.9945C14.2344 26.9945 14.4643 26.9328 14.667 26.8158L14.6721 26.8129L24.0003 21.4825C24.001 21.4821 24.0017 21.4817 24.0024 21.4813C24.204 21.3644 24.3714 21.1968 24.488 20.995C24.605 20.7926 24.6668 20.563 24.667 20.3292V9.66522C24.6668 9.4314 24.605 9.20176 24.488 8.99933C24.3714 8.7976 24.204 8.62996 24.0024 8.51311C24.0017 8.5127 24.001 8.51229 24.0003 8.51189L14.667 3.17856C14.4643 3.06154 14.2344 2.99992 14.0003 2.99992Z" fill="white"/>
</svg>
