<svg width="32" height="37" viewBox="0 0 32 37" fill="none" xmlns="http://www.w3.org/2000/svg">
<path d="M11.375 30C11.1458 28.6458 10.5417 27.1875 9.5625 25.625C8.58333 24.0417 7.1875 22.5729 5.375 21.2188C3.58333 19.8646 1.79167 19 0 18.625V17.3125C1.77083 16.8958 3.46875 16.125 5.09375 15C6.73958 13.8542 8.11458 12.4792 9.21875 10.875C10.3438 9.22917 11.0625 7.60417 11.375 6H12.6875C12.875 7.04167 13.25 8.11458 13.8125 9.21875C14.375 10.3021 15.0938 11.3437 15.9688 12.3438C16.8646 13.3229 17.8646 14.2083 18.9688 15C20.6146 16.1667 22.2917 16.9375 24 17.3125V18.625C22.8542 18.8542 21.6667 19.3229 20.4375 20.0313C19.2292 20.7396 18.1042 21.5833 17.0625 22.5625C16.0208 23.5208 15.1667 24.5312 14.5 25.5938C13.5208 27.1562 12.9167 28.625 12.6875 30H11.375Z" fill="white"/>
<path d="M25.6875 37C25.5729 36.3229 25.2708 35.5938 24.7813 34.8125C24.2917 34.0208 23.5937 33.2865 22.6875 32.6094C21.7917 31.9323 20.8958 31.5 20 31.3125V30.6562C20.8854 30.4479 21.7344 30.0625 22.5469 29.5C23.3698 28.9271 24.0573 28.2396 24.6094 27.4375C25.1719 26.6146 25.5312 25.8021 25.6875 25H26.3438C26.4375 25.5208 26.625 26.0573 26.9062 26.6094C27.1875 27.151 27.5469 27.6719 27.9844 28.1719C28.4323 28.6615 28.9323 29.1042 29.4844 29.5C30.3073 30.0833 31.1458 30.4688 32 30.6562V31.3125C31.4271 31.4271 30.8333 31.6615 30.2188 32.0156C29.6146 32.3698 29.0521 32.7917 28.5312 33.2812C28.0104 33.7604 27.5833 34.2656 27.25 34.7969C26.7604 35.5781 26.4583 36.3125 26.3438 37H25.6875Z" fill="white"/>
<path d="M21.7917 8C21.7153 7.54861 21.5139 7.0625 21.1875 6.54167C20.8611 6.01389 20.3958 5.52431 19.7917 5.07292C19.1944 4.62153 18.5972 4.33333 18 4.20833V3.77083C18.5903 3.63194 19.1562 3.375 19.6979 3C20.2465 2.61806 20.7049 2.15972 21.0729 1.625C21.4479 1.07639 21.6875 0.534722 21.7917 0H22.2292C22.2917 0.347222 22.4167 0.704861 22.6042 1.07292C22.7917 1.43403 23.0312 1.78125 23.3229 2.11458C23.6215 2.44097 23.9549 2.73611 24.3229 3C24.8715 3.38889 25.4306 3.64583 26 3.77083V4.20833C25.6181 4.28472 25.2222 4.44097 24.8125 4.67708C24.4097 4.91319 24.0347 5.19444 23.6875 5.52083C23.3403 5.84028 23.0556 6.17708 22.8333 6.53125C22.5069 7.05208 22.3056 7.54167 22.2292 8H21.7917Z" fill="white"/>
</svg>
