<svg width="21" height="17" viewBox="0 0 21 17" fill="none" xmlns="http://www.w3.org/2000/svg">
<path d="M20.3972 1.9954C19.6337 2.3331 18.8241 2.55488 17.9952 2.6534C18.8689 2.13084 19.5229 1.30842 19.8352 0.339404C19.0152 0.827404 18.1162 1.1694 17.1792 1.3544C16.5498 0.680983 15.7155 0.234367 14.8061 0.0839889C13.8967 -0.0663896 12.9631 0.0878952 12.1504 0.522857C11.3377 0.957819 10.6915 1.64909 10.3123 2.4892C9.933 3.32931 9.84191 4.27118 10.0532 5.16841C8.39027 5.08506 6.76349 4.65293 5.27845 3.90007C3.7934 3.14721 2.48329 2.09045 1.43316 0.798404C1.06145 1.43685 0.866115 2.16263 0.86716 2.9014C0.86716 4.3514 1.60516 5.6324 2.72716 6.38241C2.06317 6.3615 1.41379 6.18219 0.83316 5.85941V5.9114C0.83336 6.87711 1.16753 7.81302 1.77901 8.56046C2.39049 9.30791 3.24164 9.82088 4.18816 10.0124C3.57177 10.1794 2.92547 10.2041 2.29816 10.0844C2.56503 10.9156 3.08517 11.6426 3.78575 12.1635C4.48634 12.6844 5.33229 12.9732 6.20516 12.9894C5.33764 13.6707 4.34434 14.1744 3.28204 14.4716C2.21974 14.7688 1.10929 14.8537 0.0141602 14.7214C1.92586 15.9508 4.15126 16.6035 6.42416 16.6014C14.1172 16.6014 18.3242 10.2284 18.3242 4.70141C18.3242 4.52141 18.3192 4.3394 18.3112 4.1614C19.13 3.56957 19.8368 2.83642 20.3982 1.9964L20.3972 1.9954Z" fill="white"/>
</svg>
